/* XPM */
static const char * atlas24_xpm[] = {
"24 1 25 1",
" 	c None",
".	c #458B74",
"+	c #F5F5DC",
"@	c #BB3A3A",
"#	c #005E9D",
"$	c #C1CDCD",
"%	c #DEB887",
"&	c #B1C6ED",
"*	c #8B8878",
"=	c #E9967A",
"-	c #BDB76B",
";	c #8B0A50",
">	c #313A97",
",	c #CAD9BB",
"'	c #EEC900",
")	c #ADD8E6",
"!	c #6E7B8B",
"~	c #8B4789",
"{	c #EEE8AA",
"]	c #B8CEC6",
"^	c #B8B8DB",
"/	c #CEA46B",
"(	c #6A5ACD",
"_	c #EEE9E9",
":	c #003366",
".+@#$%&*=-;>,')!~{]^/(_:"};
